<svg width="512" height="512" viewBox="0 0 512 512" fill="none" xmlns="http://www.w3.org/2000/svg">
<path d="M28.1727 262.34C18.6878 262.34 11 270.028 11 279.413V458.827C11 468.312 18.6878 476 28.1727 476H140.993C150.478 476 158.066 468.312 158.066 458.827V279.413C158.066 269.928 150.378 262.34 140.993 262.34H28.1727ZM123.821 441.754H45.2455V296.585H123.821V441.754Z" fill="white"/>
<path d="M500.621 458.927V175.678C500.621 166.193 492.933 158.505 483.448 158.505H370.628C361.143 158.505 353.455 166.193 353.455 175.678V458.827C353.455 468.312 361.143 476 370.628 476H483.448C492.933 476 500.621 468.312 500.621 458.927ZM466.376 441.754H387.801V192.85H466.376V441.754Z" fill="white"/>
<rect x="38.5412" y="291.498" width="91.8039" height="158.515" fill="white"/>
<rect x="209.909" y="63.2117" width="91.8039" height="384.965" fill="white"/>
<rect x="384.948" y="185.617" width="91.8039" height="264.395" fill="white"/>
<path d="M312.221 476C321.706 476 329.294 468.312 329.294 458.827V53.1727C329.294 43.6878 321.606 36 312.221 36H199.4C189.915 36 182.228 43.6878 182.228 53.1727V458.827C182.228 468.312 189.915 476 199.4 476H312.221ZM216.573 70.3454H295.148V441.754H216.573V70.3454Z" fill="white"/>
</svg>
